<?xml version="1.0" encoding="utf-8"?>
<!-- Generator: Adobe Illustrator 22.0.1, SVG Export Plug-In . SVG Version: 6.00 Build 0)  -->
<svg version="1.1" id="Layer_1" xmlns="http://www.w3.org/2000/svg" xmlns:xlink="http://www.w3.org/1999/xlink" x="0px" y="0px"
	 viewBox="0 0 300 75.8" style="enable-background:new 0 0 300 75.8;" xml:space="preserve">
<style type="text/css">
	.st0{fill:#FFFFFF;}
	.st1{fill:#EC1C24;}
</style>
<g>
	<path class="st0" d="M79.2,66.5c0.6-0.1,1.1-0.2,1.1-0.6c0-0.4-0.3-0.6-0.9-0.6c-0.9,0-2.6-0.1-3.7-0.3c-2.3-0.3-2.7-1.9-3-4
		c-0.4-3.1-0.4-8.9-0.4-15.8v-1c0-0.4,0.2-0.6,0.6-0.6l6.6,0.1c0.5,0,1,0.1,1.4,0.5c1,1.1,4.4,5.8,7,10.1c3.8,6.3,5.6,9.2,8.8,10.8
		c2,1,3.8,1.2,8.1,1.2h7.2c0.9,0,1.5,0,1.5-0.6c0-0.4-0.3-0.6-0.9-0.6c-0.6,0-1.3-0.1-2.1-0.2c-1.1-0.2-4.3-0.7-8.5-5
		c-4.5-4.6-8.5-10.4-14.4-19.4c7.7-6,10.1-11,10.1-16.5c0-4.9-3.1-8.7-5.2-10.1c-4.1-2.7-9.2-3.2-14-3.2c-2.4,0-8.2,0.2-10.8,0.2
		c-1.6,0-6.4-0.2-10.5-0.2c-1.1,0-1.7,0.1-1.7,0.7c0,0.5,0.5,0.7,1.3,0.7c1.1,0,2.4,0.1,3,0.2c2.5,0.5,3.1,1.7,3.3,4.2
		c0.2,2.4,0.2,4.4,0.2,15.6v13c0,6.8,0,12.6-0.4,15.7c-0.1,0.5-0.2,1-0.3,1.4c-0.9-1.2-1.9-2.9-3-5.4c-4.9-11.2-17.1-41.2-18.9-45.3
		c-0.8-1.7-1.2-2.4-1.9-2.4c-0.8,0-1.2,0.8-2.1,2.9L17.5,58.6c-1.5,3.7-3,6.2-6.5,6.6c-0.6,0.1-1.7,0.1-2.4,0.1
		c-0.6,0-0.9,0.1-0.9,0.6c0,0.6,0.4,0.6,1.4,0.6c4,0,8.2,0,9.1,0c2.4,0,5.6,0,8,0c0.8,0,1.4,0,1.4-0.6c0-0.4-0.2-0.6-1.1-0.6h-1.1
		c-2.4,0-3.1-1-3.1-2.3c0-0.9,0.4-2.7,1.1-4.5l3.9-10l2.4-6l6.8-17.4c0.1-0.3,0.2-0.7,0.5-0.7c0.2,0,0.3,0.4,0.4,0.7l6.3,16.6
		l2.7,6.8l5.9,15c0.4,0.9-0.2,1.5-0.7,1.7c-0.8,0.1-1.1,0.2-1.1,0.7c0,0.5,0.9,0.5,2.3,0.6L79.2,66.5z M84.2,39
		c-1.4,1-2.4,1.3-5.4,1.3c-1.9,0-4.2-0.2-5.8-0.7c-0.5-0.2-0.7-0.5-0.7-1.3V15.8c0-0.6,0.2-0.9,0.7-1c0.8-0.2,2.1-0.3,4-0.3
		c4.5,0,11.7,3,11.7,13.5C88.7,34,86.5,37.3,84.2,39z"/>
</g>
<path class="st1" d="M105.8,42.1l-0.4-0.1c-11.4-2.9-23.3-4.2-35.2-3.9c-21,0.5-41.7,6.1-59.9,16.2L10,54.5l0.1,6.2l0.8-0.4
	c18-10.4,38.5-16.1,59.4-16.7c11.9-0.3,23.6,1.1,34.9,4l0.7,0.2L105.8,42.1z"/>
<g>
	<path class="st0" d="M139.3,28.5h-5.1l-1.3-3.3h-7.1l-1.4,3.3h-5.1l7.3-16.4h5.5L139.3,28.5z M131.7,22.3l-2.4-6l-2.4,6H131.7z"/>
	<path class="st0" d="M156.8,28.5h-16.7l8.5-12.5h-7.8V12h16l-8.5,12.5h8.5V28.5z"/>
	<path class="st0" d="M175.4,16h-6v12.4h-4.9V16h-6v-4h17V16z"/>
	<path class="st0" d="M190.9,28.5h-12.4V12h12.2v3.3h-7.2v3h6.9v3.3h-6.9v3.5h7.4V28.5z"/>
	<path class="st0" d="M209.2,27.2c-0.7,0.4-1.4,0.6-2.1,0.9c-0.7,0.2-1.4,0.4-2.2,0.5c-0.7,0.1-1.5,0.1-2.2,0.1
		c-1.4,0-2.7-0.2-3.8-0.6c-1.1-0.4-2.1-1-3-1.7c-0.8-0.8-1.5-1.7-1.9-2.7c-0.4-1-0.6-2.2-0.6-3.4c0-1.4,0.2-2.7,0.7-3.7
		c0.5-1.1,1.2-1.9,2.1-2.7c0.9-0.7,1.9-1.2,3-1.6c1.1-0.3,2.3-0.5,3.6-0.5c1.9,0,4,0.4,6.3,1.2v4.4c-0.8-0.5-1.6-0.9-2.4-1.3
		c-0.8-0.3-1.7-0.5-2.8-0.5c-1,0-1.9,0.2-2.7,0.6c-0.8,0.4-1.5,0.9-2,1.6c-0.5,0.7-0.8,1.5-0.8,2.5c0,0.8,0.2,1.6,0.7,2.3
		c0.4,0.7,1.1,1.2,1.8,1.6c0.8,0.4,1.7,0.6,2.7,0.6c0.8,0,1.6-0.1,2.3-0.3c0.7-0.2,1.3-0.4,1.8-0.6c0.5-0.2,1-0.5,1.5-0.8V27.2z"/>
	<path class="st0" d="M137.1,51.5h-5.3l-1.3-2.9c-0.5-1.1-0.9-1.8-1.3-2.3c-0.4-0.5-0.7-0.8-1.1-0.9c-0.4-0.1-0.8-0.2-1.4-0.2h-0.6
		v6.4h-5V35h8.4c1.4,0,2.5,0.3,3.3,0.8c0.9,0.6,1.5,1.2,1.9,2c0.4,0.8,0.6,1.5,0.6,2.3c0,0.8-0.2,1.5-0.5,2.1c-0.3,0.6-0.7,1-1,1.3
		c-0.4,0.3-0.8,0.5-1.2,0.7c0.5,0.3,1,0.7,1.3,1.1c0.3,0.4,0.8,1.3,1.4,2.6L137.1,51.5z M130.4,40.2c0-0.8-0.2-1.3-0.7-1.6
		c-0.5-0.3-1.3-0.5-2.4-0.5h-1v4h1.1c1.2,0,2-0.1,2.5-0.4C130.2,41.5,130.4,41,130.4,40.2z"/>
	<path class="st0" d="M152,51.5h-12.4V35h12.2v3.3h-7.2v3h6.9v3.3h-6.9v3.5h7.4V51.5z"/>
	<path class="st0" d="M170.3,50.2c-0.7,0.4-1.4,0.6-2.1,0.9c-0.7,0.2-1.4,0.4-2.2,0.5c-0.7,0.1-1.5,0.1-2.2,0.1
		c-1.4,0-2.7-0.2-3.8-0.6c-1.1-0.4-2.1-1-3-1.7c-0.8-0.8-1.5-1.7-1.9-2.7c-0.4-1-0.6-2.2-0.6-3.4c0-1.4,0.2-2.7,0.7-3.7
		c0.5-1.1,1.2-1.9,2.1-2.7c0.9-0.7,1.9-1.2,3-1.6c1.1-0.3,2.3-0.5,3.6-0.5c1.9,0,4,0.4,6.3,1.2v4.4c-0.8-0.5-1.6-0.9-2.4-1.3
		c-0.8-0.3-1.7-0.5-2.8-0.5c-1,0-1.9,0.2-2.7,0.6c-0.8,0.4-1.5,0.9-2,1.6c-0.5,0.7-0.8,1.5-0.8,2.5c0,0.8,0.2,1.6,0.7,2.3
		c0.4,0.7,1.1,1.2,1.8,1.6c0.8,0.4,1.7,0.6,2.7,0.6c0.8,0,1.6-0.1,2.3-0.3c0.7-0.2,1.3-0.4,1.8-0.6c0.5-0.2,1-0.5,1.5-0.8V50.2z"/>
	<path class="st0" d="M189.8,51.5h-5.3l-1.3-2.9c-0.5-1.1-0.9-1.8-1.3-2.3c-0.4-0.5-0.7-0.8-1.1-0.9c-0.4-0.1-0.8-0.2-1.4-0.2h-0.6
		v6.4h-5V35h8.4c1.4,0,2.5,0.3,3.3,0.8c0.9,0.6,1.5,1.2,1.9,2c0.4,0.8,0.6,1.5,0.6,2.3c0,0.8-0.2,1.5-0.5,2.1c-0.3,0.6-0.7,1-1,1.3
		c-0.4,0.3-0.8,0.5-1.2,0.7c0.5,0.3,1,0.7,1.3,1.1c0.3,0.4,0.8,1.3,1.4,2.6L189.8,51.5z M183.1,40.2c0-0.8-0.2-1.3-0.7-1.6
		c-0.5-0.3-1.3-0.5-2.4-0.5h-1v4h1.1c1.2,0,2-0.1,2.5-0.4C182.8,41.5,183.1,41,183.1,40.2z"/>
	<path class="st0" d="M204.7,51.5h-12.4V35h12.2v3.3h-7.2v3h6.9v3.3h-6.9v3.5h7.4V51.5z"/>
	<path class="st0" d="M226.3,51.5h-5.1l-1.3-3.3h-7.1l-1.4,3.3h-5.1l7.3-16.4h5.5L226.3,51.5z M218.8,45.3l-2.4-6l-2.4,6H218.8z"/>
	<path class="st0" d="M242.1,39h-6v12.4h-4.9V39h-6v-4h17V39z"/>
	<path class="st0" d="M250.2,51.5h-5V35h5V51.5z"/>
	<path class="st0" d="M272.2,43.2c0,1.5-0.4,2.9-1.1,4.2c-0.7,1.3-1.8,2.3-3.2,3.1c-1.4,0.8-3.1,1.1-5.1,1.1c-2,0-3.8-0.4-5.2-1.2
		c-1.4-0.8-2.5-1.8-3.1-3.1c-0.7-1.3-1-2.7-1-4.1c0-1.5,0.3-2.9,1-4.1c0.7-1.3,1.7-2.3,3.1-3.1c1.4-0.8,3.1-1.2,5.2-1.2
		c1.5,0,2.9,0.2,4.1,0.7c1.2,0.5,2.2,1.1,2.9,1.8c0.8,0.8,1.3,1.7,1.7,2.7C272,41,272.2,42.1,272.2,43.2z M267.1,43.2
		c0-0.6-0.1-1.2-0.3-1.7c-0.2-0.5-0.5-1-0.8-1.3c-0.4-0.4-0.8-0.7-1.3-0.9c-0.5-0.2-1.1-0.3-1.8-0.3c-1.3,0-2.4,0.4-3.1,1.2
		c-0.8,0.8-1.1,1.8-1.1,3c0,1.3,0.4,2.3,1.1,3.1s1.8,1.2,3.1,1.2c0.9,0,1.7-0.2,2.3-0.5c0.6-0.4,1.1-0.9,1.5-1.5
		C266.9,44.8,267.1,44.1,267.1,43.2z"/>
	<path class="st0" d="M293,51.5h-4.4l-8.5-9.2v9.2h-4.9V35h4.4l8.5,9.1V35h4.9V51.5z"/>
	<path class="st0" d="M125.9,56.5h0.8l3.8,8.4h-1.2l-1.1-2.5h-3.6l-1,2.5h-1.2L125.9,56.5z M127.7,61.4l-1.4-3l-1.3,3H127.7z"/>
	<path class="st0" d="M131.2,64.6v-1.2c0.3,0.2,0.6,0.4,0.9,0.5c0.3,0.1,0.6,0.2,0.8,0.2c0.2,0,0.4-0.1,0.6-0.2
		c0.2-0.1,0.2-0.2,0.2-0.4c0-0.2-0.1-0.3-0.2-0.4c-0.1-0.1-0.3-0.3-0.7-0.5c-0.7-0.4-1.2-0.7-1.4-1c-0.2-0.3-0.3-0.6-0.3-0.9
		c0-0.4,0.2-0.8,0.5-1c0.3-0.3,0.8-0.4,1.3-0.4c0.5,0,1.1,0.2,1.7,0.5v1.1c-0.6-0.4-1.2-0.6-1.6-0.6c-0.2,0-0.4,0-0.5,0.1
		c-0.1,0.1-0.2,0.2-0.2,0.4c0,0.1,0.1,0.3,0.2,0.4c0.1,0.1,0.3,0.3,0.6,0.4l0.4,0.2c0.9,0.5,1.4,1.1,1.4,1.7c0,0.5-0.2,0.8-0.5,1.1
		c-0.4,0.3-0.8,0.4-1.4,0.4c-0.3,0-0.6,0-0.9-0.1C131.9,64.9,131.5,64.8,131.2,64.6z"/>
	<path class="st0" d="M136,64.6v-1.2c0.3,0.2,0.6,0.4,0.9,0.5c0.3,0.1,0.6,0.2,0.8,0.2c0.2,0,0.4-0.1,0.6-0.2
		c0.2-0.1,0.2-0.2,0.2-0.4c0-0.2-0.1-0.3-0.2-0.4c-0.1-0.1-0.3-0.3-0.7-0.5c-0.7-0.4-1.2-0.7-1.4-1c-0.2-0.3-0.3-0.6-0.3-0.9
		c0-0.4,0.2-0.8,0.5-1c0.3-0.3,0.8-0.4,1.3-0.4c0.5,0,1.1,0.2,1.7,0.5v1.1c-0.6-0.4-1.2-0.6-1.6-0.6c-0.2,0-0.4,0-0.5,0.1
		c-0.1,0.1-0.2,0.2-0.2,0.4c0,0.1,0.1,0.3,0.2,0.4c0.1,0.1,0.3,0.3,0.6,0.4l0.4,0.2c0.9,0.5,1.4,1.1,1.4,1.7c0,0.5-0.2,0.8-0.5,1.1
		c-0.4,0.3-0.8,0.4-1.4,0.4c-0.3,0-0.6,0-0.9-0.1C136.7,64.9,136.4,64.8,136,64.6z"/>
	<path class="st0" d="M143.8,59.4c0.8,0,1.5,0.3,2.1,0.8c0.6,0.5,0.8,1.2,0.8,2c0,0.8-0.3,1.5-0.8,2c-0.6,0.5-1.3,0.8-2.1,0.8
		c-0.8,0-1.5-0.3-2.1-0.8c-0.6-0.5-0.8-1.2-0.8-2c0-0.8,0.3-1.5,0.8-2C142.2,59.7,142.9,59.4,143.8,59.4z M143.7,60.4
		c-0.5,0-1,0.2-1.3,0.5c-0.3,0.3-0.5,0.8-0.5,1.3c0,0.5,0.2,1,0.5,1.3c0.3,0.3,0.8,0.5,1.3,0.5c0.5,0,1-0.2,1.3-0.5
		c0.3-0.3,0.5-0.8,0.5-1.3c0-0.5-0.2-1-0.5-1.3C144.7,60.6,144.3,60.4,143.7,60.4z"/>
	<path class="st0" d="M152.2,63.7v1.1c-0.5,0.2-1.1,0.3-1.6,0.3c-0.9,0-1.6-0.3-2.1-0.8c-0.5-0.5-0.8-1.2-0.8-2.1
		c0-0.9,0.3-1.6,0.7-2.1c0.5-0.5,1.2-0.8,2-0.8c0.3,0,0.5,0,0.8,0.1c0.2,0.1,0.5,0.2,0.8,0.3v1.2c-0.6-0.4-1.1-0.5-1.5-0.5
		c-0.5,0-0.9,0.2-1.2,0.5c-0.3,0.3-0.5,0.8-0.5,1.3c0,0.6,0.2,1,0.5,1.3s0.8,0.5,1.4,0.5C151.1,64.1,151.6,63.9,152.2,63.7z"/>
	<path class="st0" d="M154.1,57.1c0.2,0,0.3,0.1,0.5,0.2c0.1,0.1,0.2,0.3,0.2,0.5c0,0.2-0.1,0.3-0.2,0.5c-0.1,0.1-0.3,0.2-0.5,0.2
		c-0.2,0-0.3-0.1-0.4-0.2c-0.1-0.1-0.2-0.3-0.2-0.5c0-0.2,0.1-0.3,0.2-0.4C153.8,57.2,153.9,57.1,154.1,57.1z M153.6,59.5h1.1V65
		h-1.1V59.5z"/>
	<path class="st0" d="M159.8,61.7V64c0,0.2,0.1,0.3,0.2,0.3c0.1,0,0.3-0.1,0.6-0.3v0.7c-0.2,0.2-0.4,0.3-0.6,0.3
		c-0.2,0.1-0.3,0.1-0.5,0.1c-0.5,0-0.7-0.2-0.8-0.6c-0.5,0.4-1,0.5-1.5,0.5c-0.4,0-0.7-0.1-1-0.4c-0.3-0.3-0.4-0.6-0.4-1
		c0-0.3,0.1-0.7,0.4-0.9c0.3-0.3,0.6-0.5,1.1-0.7l1.4-0.5v-0.3c0-0.7-0.3-1-1-1c-0.6,0-1.2,0.3-1.7,0.9v-1.2c0.4-0.5,1-0.8,1.8-0.8
		c0.6,0,1.1,0.2,1.4,0.5c0.1,0.1,0.2,0.2,0.3,0.4c0.1,0.2,0.2,0.3,0.2,0.5C159.8,60.9,159.8,61.2,159.8,61.7z M158.8,63.9v-1.6
		l-0.7,0.3c-0.4,0.1-0.6,0.3-0.8,0.4c-0.2,0.2-0.2,0.3-0.2,0.6c0,0.2,0.1,0.4,0.2,0.6c0.1,0.1,0.3,0.2,0.6,0.2
		C158.1,64.3,158.5,64.2,158.8,63.9z"/>
	<path class="st0" d="M160.9,60.3l2.1-2v1.1h1.7v1H163v2.7c0,0.6,0.3,0.9,0.8,0.9c0.4,0,0.8-0.1,1.2-0.4v1c-0.4,0.2-0.9,0.4-1.4,0.4
		c-0.5,0-0.9-0.1-1.2-0.4c-0.1-0.1-0.2-0.2-0.3-0.3c-0.1-0.1-0.1-0.3-0.2-0.4c0-0.2-0.1-0.5-0.1-1v-2.4h-1V60.3z"/>
	<path class="st0" d="M170.6,62.3h-3.9c0,0.5,0.2,0.9,0.5,1.3c0.3,0.3,0.7,0.5,1.3,0.5c0.7,0,1.4-0.2,2-0.7v1.1
		c-0.3,0.2-0.7,0.4-1,0.5c-0.3,0.1-0.7,0.1-1.2,0.1c-0.6,0-1.1-0.1-1.5-0.4c-0.4-0.3-0.7-0.6-0.9-1c-0.2-0.4-0.3-0.9-0.3-1.5
		c0-0.8,0.2-1.5,0.7-2c0.5-0.5,1.1-0.8,1.9-0.8c0.7,0,1.3,0.3,1.8,0.8c0.4,0.5,0.7,1.2,0.7,2.1V62.3z M166.8,61.7h2.8
		c0-0.4-0.2-0.8-0.4-1c-0.2-0.2-0.5-0.4-0.9-0.4c-0.4,0-0.7,0.1-1,0.4C167,60.9,166.9,61.2,166.8,61.7z"/>
	<path class="st0" d="M175.6,56.6h1.1V65h-2.3c-0.8,0-1.5-0.3-2-0.8c-0.5-0.5-0.7-1.2-0.7-2.1c0-0.8,0.3-1.5,0.8-2
		c0.5-0.5,1.2-0.8,2-0.8c0.4,0,0.8,0.1,1.2,0.2V56.6z M175.6,64v-3.5c-0.3-0.2-0.7-0.3-1-0.3c-0.5,0-1,0.2-1.3,0.5
		c-0.3,0.4-0.5,0.8-0.5,1.4c0,0.6,0.1,1,0.4,1.3c0.2,0.2,0.3,0.3,0.5,0.4c0.2,0.1,0.5,0.1,1,0.1H175.6z"/>
	<path class="st0" d="M184.1,61.5l-0.9-0.6c-0.6-0.3-1-0.7-1.2-1c-0.2-0.3-0.4-0.7-0.4-1.2c0-0.7,0.2-1.2,0.7-1.6
		c0.5-0.4,1.1-0.6,1.8-0.6c0.7,0,1.3,0.2,1.9,0.6v1.4c-0.6-0.6-1.3-0.9-1.9-0.9c-0.4,0-0.7,0.1-1,0.3c-0.3,0.2-0.4,0.4-0.4,0.7
		c0,0.3,0.1,0.5,0.3,0.7c0.2,0.2,0.5,0.4,0.9,0.7l0.9,0.5c1,0.6,1.5,1.4,1.5,2.3c0,0.7-0.2,1.2-0.7,1.6c-0.4,0.4-1,0.6-1.8,0.6
		c-0.8,0-1.6-0.3-2.3-0.8v-1.5c0.6,0.8,1.4,1.2,2.2,1.2c0.4,0,0.7-0.1,0.9-0.3c0.3-0.2,0.4-0.5,0.4-0.8
		C185.2,62.4,184.8,61.9,184.1,61.5z"/>
	<path class="st0" d="M186.8,60.3l2.1-2v1.1h1.7v1h-1.7v2.7c0,0.6,0.3,0.9,0.8,0.9c0.4,0,0.8-0.1,1.2-0.4v1
		c-0.4,0.2-0.9,0.4-1.4,0.4c-0.5,0-0.9-0.1-1.2-0.4c-0.1-0.1-0.2-0.2-0.3-0.3c-0.1-0.1-0.1-0.3-0.2-0.4c0-0.2-0.1-0.5-0.1-1v-2.4h-1
		V60.3z"/>
	<path class="st0" d="M195.4,65v-0.7c-0.2,0.3-0.5,0.4-0.8,0.6c-0.3,0.1-0.6,0.2-0.9,0.2c-0.3,0-0.7-0.1-1-0.3
		c-0.3-0.2-0.5-0.4-0.7-0.7c-0.2-0.3-0.2-0.8-0.2-1.5v-3.2h1.1v3.1c0,0.6,0.1,1,0.2,1.2c0.2,0.2,0.5,0.3,0.9,0.3
		c0.5,0,1-0.3,1.3-0.8v-3.9h1.1V65H195.4z"/>
	<path class="st0" d="M201.8,56.6h1.1V65h-2.3c-0.8,0-1.5-0.3-2-0.8c-0.5-0.5-0.7-1.2-0.7-2.1c0-0.8,0.3-1.5,0.8-2
		c0.5-0.5,1.2-0.8,2-0.8c0.4,0,0.8,0.1,1.2,0.2V56.6z M201.8,64v-3.5c-0.3-0.2-0.7-0.3-1-0.3c-0.5,0-1,0.2-1.3,0.5
		c-0.3,0.4-0.5,0.8-0.5,1.4c0,0.6,0.1,1,0.4,1.3c0.2,0.2,0.3,0.3,0.5,0.4c0.2,0.1,0.5,0.1,1,0.1H201.8z"/>
	<path class="st0" d="M209.2,62.3h-3.9c0,0.5,0.2,0.9,0.5,1.3c0.3,0.3,0.7,0.5,1.3,0.5c0.7,0,1.4-0.2,2-0.7v1.1
		c-0.3,0.2-0.7,0.4-1,0.5c-0.3,0.1-0.7,0.1-1.2,0.1c-0.6,0-1.1-0.1-1.5-0.4c-0.4-0.3-0.7-0.6-0.9-1c-0.2-0.4-0.3-0.9-0.3-1.5
		c0-0.8,0.2-1.5,0.7-2c0.5-0.5,1.1-0.8,1.9-0.8c0.7,0,1.3,0.3,1.8,0.8c0.4,0.5,0.7,1.2,0.7,2.1V62.3z M205.3,61.7h2.8
		c0-0.4-0.2-0.8-0.4-1c-0.2-0.2-0.5-0.4-0.9-0.4c-0.4,0-0.7,0.1-1,0.4C205.6,60.9,205.4,61.2,205.3,61.7z"/>
	<path class="st0" d="M211.6,59.5v0.7c0.5-0.5,1-0.8,1.7-0.8c0.3,0,0.7,0.1,1,0.3c0.3,0.2,0.5,0.4,0.7,0.7c0.2,0.3,0.2,0.8,0.2,1.5
		V65H214v-3.1c0-0.6-0.1-1-0.3-1.2c-0.2-0.2-0.5-0.4-0.9-0.4c-0.5,0-1,0.3-1.3,0.8V65h-1.1v-5.5H211.6z"/>
	<path class="st0" d="M216,60.3l2.1-2v1.1h1.7v1H218v2.7c0,0.6,0.3,0.9,0.8,0.9c0.4,0,0.8-0.1,1.2-0.4v1c-0.4,0.2-0.9,0.4-1.4,0.4
		c-0.5,0-0.9-0.1-1.2-0.4c-0.1-0.1-0.2-0.2-0.3-0.3c-0.1-0.1-0.1-0.3-0.2-0.4c0-0.2-0.1-0.5-0.1-1v-2.4h-1V60.3z"/>
	<path class="st0" d="M220.7,64.6v-1.2c0.3,0.2,0.6,0.4,0.9,0.5c0.3,0.1,0.6,0.2,0.8,0.2c0.2,0,0.4-0.1,0.6-0.2
		c0.2-0.1,0.2-0.2,0.2-0.4c0-0.2-0.1-0.3-0.2-0.4c-0.1-0.1-0.3-0.3-0.7-0.5c-0.7-0.4-1.2-0.7-1.4-1c-0.2-0.3-0.3-0.6-0.3-0.9
		c0-0.4,0.2-0.8,0.5-1c0.3-0.3,0.8-0.4,1.3-0.4c0.5,0,1.1,0.2,1.7,0.5v1.1c-0.6-0.4-1.2-0.6-1.6-0.6c-0.2,0-0.4,0-0.5,0.1
		c-0.1,0.1-0.2,0.2-0.2,0.4c0,0.1,0.1,0.3,0.2,0.4c0.1,0.1,0.3,0.3,0.6,0.4l0.4,0.2c0.9,0.5,1.4,1.1,1.4,1.7c0,0.5-0.2,0.8-0.5,1.1
		c-0.4,0.3-0.8,0.4-1.4,0.4c-0.3,0-0.6,0-0.9-0.1C221.4,64.9,221.1,64.8,220.7,64.6z"/>
	<path class="st0" d="M228.6,65.1l2.4-8.6h0.9l-2.4,8.6H228.6z"/>
	<path class="st0" d="M238.7,61.5l-0.9-0.6c-0.6-0.3-1-0.7-1.2-1c-0.2-0.3-0.4-0.7-0.4-1.2c0-0.7,0.2-1.2,0.7-1.6
		c0.5-0.4,1.1-0.6,1.8-0.6c0.7,0,1.3,0.2,1.9,0.6v1.4c-0.6-0.6-1.3-0.9-1.9-0.9c-0.4,0-0.7,0.1-1,0.3c-0.3,0.2-0.4,0.4-0.4,0.7
		c0,0.3,0.1,0.5,0.3,0.7c0.2,0.2,0.5,0.4,0.9,0.7l0.9,0.5c1,0.6,1.5,1.4,1.5,2.3c0,0.7-0.2,1.2-0.7,1.6c-0.5,0.4-1,0.6-1.8,0.6
		c-0.8,0-1.6-0.3-2.3-0.8v-1.5c0.6,0.8,1.4,1.2,2.2,1.2c0.4,0,0.7-0.1,0.9-0.3c0.2-0.2,0.4-0.5,0.4-0.8
		C239.8,62.4,239.4,61.9,238.7,61.5z"/>
	<path class="st0" d="M242.4,65v-8.4h2.8c1.1,0,2,0.2,2.7,0.5c0.7,0.3,1.2,0.8,1.6,1.5c0.4,0.7,0.6,1.4,0.6,2.2
		c0,0.6-0.1,1.1-0.3,1.6c-0.2,0.5-0.5,1-0.9,1.4c-0.4,0.4-0.9,0.7-1.4,0.9c-0.3,0.1-0.6,0.2-0.9,0.2c-0.3,0-0.8,0.1-1.5,0.1H242.4z
		 M245.1,57.7h-1.5v6.2h1.5c0.6,0,1.1,0,1.4-0.1c0.3-0.1,0.6-0.2,0.8-0.3c0.2-0.1,0.4-0.3,0.6-0.5c0.6-0.6,0.9-1.4,0.9-2.3
		c0-0.9-0.3-1.6-0.9-2.2c-0.2-0.2-0.5-0.4-0.8-0.5c-0.3-0.1-0.6-0.2-0.8-0.3C246.1,57.7,245.7,57.7,245.1,57.7z"/>
	<path class="st0" d="M253.8,61.5l-0.9-0.6c-0.6-0.3-1-0.7-1.2-1c-0.2-0.3-0.4-0.7-0.4-1.2c0-0.7,0.2-1.2,0.7-1.6
		c0.5-0.4,1.1-0.6,1.8-0.6c0.7,0,1.3,0.2,1.9,0.6v1.4c-0.6-0.6-1.3-0.9-2-0.9c-0.4,0-0.7,0.1-1,0.3c-0.3,0.2-0.4,0.4-0.4,0.7
		c0,0.3,0.1,0.5,0.3,0.7c0.2,0.2,0.5,0.4,0.9,0.7l0.9,0.5c1,0.6,1.5,1.4,1.5,2.3c0,0.7-0.2,1.2-0.7,1.6c-0.5,0.4-1,0.6-1.8,0.6
		c-0.8,0-1.6-0.3-2.3-0.8v-1.5c0.6,0.8,1.4,1.2,2.2,1.2c0.4,0,0.7-0.1,0.9-0.3c0.2-0.2,0.4-0.5,0.4-0.8
		C254.9,62.4,254.5,61.9,253.8,61.5z"/>
	<path class="st0" d="M263.3,56.6h1.2v4.8c0,0.6,0,1.1-0.1,1.5c-0.1,0.3-0.2,0.6-0.3,0.8c-0.1,0.2-0.3,0.4-0.5,0.6
		c-0.7,0.6-1.5,0.9-2.6,0.9c-1.1,0-2-0.3-2.6-0.9c-0.2-0.2-0.4-0.4-0.5-0.6c-0.1-0.2-0.3-0.5-0.3-0.8c-0.1-0.3-0.1-0.8-0.1-1.5v-4.7
		h1.2v4.8c0,0.8,0.1,1.3,0.3,1.6s0.5,0.6,0.8,0.7c0.4,0.2,0.8,0.3,1.3,0.3c0.7,0,1.3-0.2,1.7-0.6c0.2-0.2,0.4-0.4,0.5-0.7
		c0.1-0.3,0.2-0.7,0.2-1.4V56.6z"/>
</g>
</svg>
